<svg height="50" viewBox="0 0 50 50" width="50" xmlns="http://www.w3.org/2000/svg" xmlns:xlink="http://www.w3.org/1999/xlink"><mask id="a" fill="#fff"><path d="m49.92.078h-49.92v48.682h49.92z" fill="#fff" fill-rule="evenodd"/></mask><g fill="#fefefe" fill-rule="evenodd"><path d="m24.963.086c-13.783-.004-24.958 11.164-24.963 24.946-.004 10.75 6.876 20.292 17.075 23.686 1.24.232 1.706-.54 1.706-1.202 0-.595-.024-2.562-.032-4.645-6.942 1.51-8.405-2.94-8.405-2.94-1.136-2.893-2.768-3.654-2.768-3.654-2.265-1.55.17-1.516.17-1.516 2.503.177 3.825 2.57 3.825 2.57 2.227 3.814 5.84 2.71 7.26 2.066.224-1.612.873-2.715 1.583-3.34-5.54-.63-11.368-2.772-11.368-12.33-.035-2.48.886-4.878 2.57-6.698-.26-.628-1.11-3.165.245-6.61 0 0 2.095-.67 6.863 2.557 4.09-1.12 8.406-1.12 12.496 0 4.764-3.228 6.855-2.558 6.855-2.558 1.36 3.438.504 5.975.243 6.61 1.685 1.82 2.605 4.22 2.566 6.7 0 9.582-5.838 11.694-11.392 12.314.897.773 1.694 2.294 1.694 4.62 0 3.34-.03 6.025-.03 6.848 0 .665.452 1.442 1.716 1.198 13.072-4.373 20.124-18.515 15.75-31.587-3.402-10.176-12.922-17.037-23.649-17.044l-.01.008z" mask="url(#a)" transform="translate(0 .335)"/><path d="m9.46 36.248c-.055.124-.253.16-.414.074-.162-.087-.28-.252-.224-.376.058-.124.248-.16.414-.078.165.082.285.252.223.376v.004zm1.01 1.128c-.12.11-.35.058-.507-.116-.158-.125-.19-.35-.075-.516.124-.112.348-.058.513.115.166.173.195.413.07.516m.984 1.439c-.153.107-.414 0-.558-.215-.145-.216-.153-.49 0-.596.153-.107.413 0 .558.21.144.21.152.492 0 .6m1.347 1.389c-.137.153-.414.112-.64-.095-.207-.142-.268-.42-.14-.636.14-.152.412-.107.643.096.232.202.28.488.137.636m1.858.805c-.06.194-.342.285-.623.203-.28-.082-.467-.313-.413-.512.054-.198.34-.29.624-.202.285.086.467.314.413.512m2.042.144c0 .206-.232.376-.53.38-.297.004-.54-.16-.54-.364 0-.203.235-.377.532-.38.298-.005.542.16.542.363h-.004zm1.9-.318c.038.202-.17.413-.467.462-.297.05-.557-.07-.595-.268-.036-.2.175-.414.464-.468.29-.054.558.07.595.273h.003z"/></g></svg>