<svg width="34" height="28" viewBox="0 0 34 28" xmlns="http://www.w3.org/2000/svg"><path d="M34 3.315c-1.25.562-2.594.942-4.005 1.112 1.44-.874 2.546-2.26 3.067-3.91-1.35.81-2.84 1.398-4.432 1.714C27.36.858 25.546 0 23.54 0c-3.85 0-6.974 3.165-6.974 7.068 0 .554.06 1.092.18 1.61C10.948 8.383 5.81 5.572 2.366 1.29c-.6 1.048-.943 2.263-.943 3.558 0 2.45 1.23 4.615 3.103 5.883-1.14-.034-2.22-.355-3.16-.88v.086c0 3.426 2.404 6.284 5.597 6.93-.585.167-1.202.25-1.838.25-.45 0-.888-.043-1.313-.126.888 2.807 3.462 4.852 6.516 4.906-2.387 1.897-5.397 3.028-8.664 3.028-.562 0-1.12-.032-1.664-.097C3.087 26.83 6.755 28 10.693 28 23.525 28 30.54 17.23 30.54 7.89c0-.308-.006-.615-.018-.917 1.363-.997 2.546-2.24 3.478-3.658" fill="#FFF" fill-rule="evenodd"/></svg>